HIERARCHY
ROOT Hips
{
 OFFSET 0.000000 0.000000 0.000000
 CHANNELS 6 Xposition Yposition Zposition Yrotation Xrotation Zrotation
 JOINT Chest
 {
  OFFSET 0.000000 103.927959 -11.547555
  CHANNELS 3 Yrotation Xrotation Zrotation
  JOINT Chest2
  {
   OFFSET 0.000000 116.259650 0.000000
   CHANNELS 3 Yrotation Xrotation Zrotation
   JOINT Chest3
   {
    OFFSET 0.000000 106.135078 0.000000
    CHANNELS 3 Yrotation Xrotation Zrotation
    JOINT Chest4
    {
     OFFSET 0.000000 106.016608 0.000000
     CHANNELS 3 Yrotation Xrotation Zrotation
     JOINT Neck
     {
      OFFSET 0.000000 148.478086 0.000000
      CHANNELS 3 Yrotation Xrotation Zrotation
      JOINT Head
      {
       OFFSET 0.000000 98.684725 0.000000
       CHANNELS 3 Yrotation Xrotation Zrotation
       End Site
       {
        OFFSET 0.000000 183.657339 0.000000
       }
      }
     }
     JOINT RightCollar
     {
      OFFSET -32.301251 83.229558 0.000000
      CHANNELS 3 Yrotation Xrotation Zrotation
      JOINT RightShoulder
      {
       OFFSET -148.983121 0.000000 0.000000
       CHANNELS 3 Yrotation Xrotation Zrotation
       JOINT RightElbow
       {
        OFFSET 0.000000 -318.416921 0.000000
        CHANNELS 3 Yrotation Xrotation Zrotation
        JOINT RightWrist
        {
         OFFSET 0.000000 -260.384535 0.000000
         CHANNELS 3 Yrotation Xrotation Zrotation
         End Site
         {
          OFFSET 0.000000 -194.729091 0.000000
         }
        }
       }
      }
     }
     JOINT LeftCollar
     {
      OFFSET 32.301251 83.229558 0.000000
      CHANNELS 3 Yrotation Xrotation Zrotation
      JOINT LeftShoulder
      {
       OFFSET 148.983121 0.000000 0.000000
       CHANNELS 3 Yrotation Xrotation Zrotation
       JOINT LeftElbow
       {
        OFFSET 0.000000 -318.416921 0.000000
        CHANNELS 3 Yrotation Xrotation Zrotation
        JOINT LeftWrist
        {
         OFFSET 0.000000 -260.384535 0.000000
         CHANNELS 3 Yrotation Xrotation Zrotation
         End Site
         {
          OFFSET 0.000000 -194.729091 0.000000
         }
        }
       }
      }
     }
    }
   }
  }
 }
 JOINT RightHip
 {
  OFFSET -85.448433 0.000000 0.000000
  CHANNELS 3 Yrotation Xrotation Zrotation
  JOINT RightKnee
  {
   OFFSET 0.000000 -444.902608 0.000000
   CHANNELS 3 Yrotation Xrotation Zrotation
   JOINT RightAnkle
   {
    OFFSET 0.000000 -434.916856 0.000000
    CHANNELS 3 Yrotation Xrotation Zrotation
    JOINT RightToe
    {
     OFFSET 0.000000 -65.483541 148.093546
     CHANNELS 3 Yrotation Xrotation Zrotation
     End Site
     {
      OFFSET 0.000000 -15.533754 66.277348
     }
    }
   }
  }
 }
 JOINT LeftHip
 {
  OFFSET 85.448433 0.000000 0.000000
  CHANNELS 3 Yrotation Xrotation Zrotation
  JOINT LeftKnee
  {
   OFFSET 0.000000 -444.902608 0.000000
   CHANNELS 3 Yrotation Xrotation Zrotation
   JOINT LeftAnkle
   {
    OFFSET 0.000000 -434.916856 0.000000
    CHANNELS 3 Yrotation Xrotation Zrotation
    JOINT LeftToe
    {
     OFFSET 0.000000 -65.483541 148.093546
     CHANNELS 3 Yrotation Xrotation Zrotation
     End Site
     {
      OFFSET 0.000000 -15.533754 66.277348
     }
    }
   }
  }
 }
}
MOTION
Frames: 13
Frame Time: 0.016667
-2484.227772 956.136488 3544.857474 -153.029600 3.816463 -1.174261 2.370159 -3.277711 -1.523142 1.109728 -7.290469 -0.665075 1.101173 -1.471120 -0.552394 0.782546 4.732193 -0.412880 14.615453 17.419169 -0.539928 27.109354 -2.295167 -5.744728 2.813813 -3.141412 15.187033 32.149537 -24.012954 -16.217097 11.962436 -41.048886 53.089890 -23.318238 -17.093852 -8.195230 -4.772377 2.716277 -2.400116 -23.887498 -14.058555 46.780607 -43.645976 -66.511155 -7.499950 -19.040481 -21.611755 8.944571 -3.506786 -1.515713 -2.426956 1.425931 3.805881 -0.244480 -16.811680 -8.374637 3.569038 0.000000 0.000000 0.000000 2.952752 -5.027691 7.574612 2.315070 3.342234 0.531102 6.956511 -2.069524 -1.479479 0.000000 -0.000000 -0.000000
-2483.949551 956.054145 3545.117793 -153.057491 3.810081 -1.211243 2.394209 -3.279530 -1.505525 1.119712 -7.291275 -0.657007 1.111077 -1.471945 -0.543313 0.790692 4.731586 -0.406021 14.602096 17.424047 -0.488185 27.067467 -2.300499 -5.645875 2.826739 -3.148963 15.189309 32.210506 -24.023460 -16.250743 11.979685 -41.118312 53.035293 -23.241576 -17.071932 -8.195256 -4.782032 2.678135 -2.412911 -23.863405 -14.060851 46.827058 -43.732220 -66.558502 -7.474123 -19.033542 -21.615655 8.981237 -3.450135 -1.541886 -2.383369 1.390931 3.826935 -0.246265 -16.801610 -8.362853 3.562339 0.000000 0.000000 0.000000 2.977427 -5.049983 7.613854 2.324909 3.349427 0.539966 6.992541 -2.030309 -1.465372 -0.000000 -0.000000 0.000000
-2483.658829 955.990034 3545.398402 -153.070914 3.825766 -1.247669 2.417907 -3.292653 -1.489234 1.129545 -7.297108 -0.649480 1.120820 -1.477797 -0.534787 0.798670 4.727209 -0.399568 14.591492 17.436597 -0.438194 27.030092 -2.290873 -5.549405 2.832902 -3.142901 15.189844 32.274589 -24.033769 -16.285757 12.031124 -41.196100 52.949029 -23.130295 -17.035287 -8.203386 -4.786740 2.646403 -2.426476 -23.856802 -14.048573 46.868679 -43.834544 -66.594039 -7.415169 -19.042790 -21.613853 9.028867 -3.409002 -1.583122 -2.344483 1.361091 3.834496 -0.235775 -16.793130 -8.348178 3.554117 0.000000 0.000000 0.000000 3.005979 -5.098313 7.652149 2.324751 3.354332 0.546833 7.017157 -1.987790 -1.453637 0.000000 0.000000 0.000000
-2483.348929 955.961158 3545.712371 -153.066773 3.874802 -1.283891 2.440716 -3.324174 -1.474607 1.138976 -7.311121 -0.642611 1.130148 -1.491829 -0.526959 0.806275 4.716695 -0.393622 14.583779 17.462563 -0.391460 26.997198 -2.255425 -5.456894 2.827070 -3.112974 15.186559 32.348668 -24.048556 -16.323463 12.139517 -41.295266 52.808164 -22.952021 -16.959300 -8.229151 -4.782098 2.624502 -2.439954 -23.885322 -14.008165 46.910793 -43.983236 -66.616983 -7.274111 -19.088285 -21.599801 9.104017 -3.384719 -1.647814 -2.314130 1.339727 3.822170 -0.203445 -16.789415 -8.329738 3.543811 0.000000 0.000000 0.000000 3.031803 -5.184725 7.689953 2.315013 3.357155 0.551891 7.023701 -1.943246 -1.446546 0.000000 0.000000 -0.000000
-2483.026528 955.950514 3546.046631 -153.048211 3.945934 -1.319540 2.463161 -3.367007 -1.461367 1.148255 -7.330166 -0.636306 1.139316 -1.510893 -0.519711 0.813712 4.702407 -0.388099 14.578843 17.496165 -0.346434 26.968920 -2.205102 -5.366723 2.814468 -3.069428 15.181576 32.425869 -24.063105 -16.362596 12.282796 -41.402279 52.634974 -22.739310 -16.868405 -8.262610 -4.772512 2.609030 -2.454206 -23.931289 -13.953184 46.948045 -44.147938 -66.627884 -7.099983 -19.149850 -21.579915 9.190108 -3.375972 -1.727533 -2.288525 1.323491 3.796350 -0.158828 -16.787301 -8.308404 3.531985 0.000000 -0.000000 0.000000 3.061458 -5.297211 7.726670 2.295279 3.357688 0.554935 7.018831 -1.895394 -1.441849 0.000000 0.000000 0.000000
-2482.721877 955.942825 3546.379144 -153.016869 4.024441 -1.348818 2.482042 -3.411522 -1.450897 1.156054 -7.349959 -0.631254 1.147013 -1.530701 -0.513866 0.819934 4.687558 -0.383634 14.582297 17.526124 -0.302419 26.956908 -2.159719 -5.281658 2.801476 -3.026503 15.179409 32.489637 -24.074183 -16.399727 12.401072 -41.480972 52.490555 -22.578818 -16.800752 -8.268562 -4.762368 2.599839 -2.469483 -23.967719 -13.913259 46.972131 -44.264331 -66.630479 -6.989709 -19.187400 -21.555937 9.252364 -3.401397 -1.809172 -2.266954 1.319254 3.761387 -0.117799 -16.776933 -8.283362 3.521067 0.000000 0.000000 0.000000 3.117503 -5.419388 7.755632 2.254563 3.352730 0.553502 6.994600 -1.846303 -1.437900 0.000000 0.000000 0.000000
-2482.455880 955.933365 3546.709891 -152.970929 4.110411 -1.367500 2.496622 -3.456836 -1.443938 1.162077 -7.370110 -0.627798 1.152946 -1.550865 -0.509798 0.824693 4.672440 -0.380510 14.598120 17.548180 -0.258295 26.968686 -2.126655 -5.201707 2.788833 -2.987804 15.181653 32.533752 -24.079683 -16.437268 12.466272 -41.512023 52.404860 -22.515012 -16.781274 -8.227647 -4.752758 2.596879 -2.486767 -23.984045 -13.904161 46.973035 -44.291445 -66.620144 -7.002878 -19.179064 -21.523782 9.269148 -3.483142 -1.890356 -2.251503 1.337713 3.711786 -0.085690 -16.749886 -8.251219 3.512179 0.000000 0.000000 0.000000 3.209010 -5.551675 7.770669 2.184251 3.341894 0.546832 6.948739 -1.797509 -1.432548 0.000000 0.000000 0.000000
-2482.207633 955.926861 3547.038893 -152.912178 4.203757 -1.379737 2.507652 -3.503816 -1.439763 1.166625 -7.391003 -0.625605 1.157415 -1.571767 -0.507142 0.828242 4.656765 -0.378449 14.622326 17.566565 -0.215179 26.996698 -2.098633 -5.126820 2.775801 -2.949740 15.186717 32.564400 -24.081748 -16.472748 12.505540 -41.515260 52.348822 -22.503138 -16.785292 -8.159761 -4.742598 2.600212 -2.505049 -23.990827 -13.910073 46.960763 -44.270386 -66.601604 -7.079839 -19.146855 -21.487700 9.262166 -3.599037 -1.973386 -2.239773 1.368172 3.653053 -0.057140 -16.714595 -8.215350 3.504225 0.000000 -0.000000 -0.000000 3.327013 -5.693647 7.777447 2.092968 3.325571 0.535631 6.883529 -1.747464 -1.427990 -0.000000 0.000000 -0.000000
-2481.944668 955.922215 3547.344170 -152.847653 4.289501 -1.392339 2.514166 -3.545447 -1.437493 1.169265 -7.409514 -0.624324 1.159996 -1.590284 -0.505592 0.830288 4.642879 -0.377231 14.648567 17.582768 -0.175768 27.029944 -2.073423 -5.059706 2.766560 -2.915754 15.194305 32.583639 -24.083583 -16.495383 12.541264 -41.513642 52.295557 -22.495841 -16.776799 -8.088960 -4.733017 2.609843 -2.521584 -23.992806 -13.913280 46.957097 -44.259862 -66.592919 -7.138785 -19.116539 -21.462120 9.261581 -3.701224 -2.052173 -2.224468 1.385454 3.606050 -0.031991 -16.686479 -8.185101 3.496292 0.000000 0.000000 0.000000 3.467022 -5.827713 7.787115 1.995598 3.301734 0.519628 6.797836 -1.693614 -1.429122 0.000000 0.000000 0.000000
-2481.654128 955.919113 3547.612183 -152.779248 4.360881 -1.407320 2.515359 -3.579077 -1.437292 1.169655 -7.424464 -0.624052 1.160351 -1.605234 -0.505279 0.830570 4.631667 -0.376958 14.679178 17.597172 -0.140486 27.072787 -2.049820 -5.001746 2.763891 -2.887027 15.205356 32.586093 -24.085465 -16.497332 12.580415 -41.512089 52.234665 -22.476885 -16.733546 -8.015176 -4.724453 2.628712 -2.535995 -23.990753 -13.904005 46.971974 -44.283955 -66.602730 -7.143130 -19.096226 -21.455859 9.280914 -3.769984 -2.123700 -2.202693 1.374982 3.580181 -0.011989 -16.669238 -8.164259 3.488575 0.000000 0.000000 0.000000 3.644784 -5.947477 7.803518 1.886666 3.267839 0.496218 6.684510 -1.634150 -1.439862 -0.000000 -0.000000 0.000000
-2481.348871 955.917869 3547.856473 -152.705066 4.424667 -1.422679 2.512031 -3.607348 -1.438951 1.168131 -7.437026 -0.624675 1.158813 -1.617794 -0.506056 0.829346 4.622247 -0.377516 14.711828 17.609414 -0.108929 27.120877 -2.028987 -4.951589 2.765028 -2.862388 15.218917 32.577149 -24.087191 -16.486425 12.615979 -41.505709 52.176574 -22.462482 -16.677738 -7.938467 -4.716470 2.653863 -2.548633 -23.983896 -13.892086 46.995486 -44.318427 -66.622458 -7.129618 -19.077763 -21.460137 9.306570 -3.825030 -2.191026 -2.177572 1.351362 3.566036 0.004593 -16.659155 -8.149052 3.480850 0.000000 0.000000 0.000000 3.844551 -6.059444 7.822687 1.771679 3.226453 0.467931 6.550706 -1.570849 -1.456354 0.000000 0.000000 0.000000
-2481.034997 955.918323 3548.095679 -152.626470 4.486176 -1.439233 2.505623 -3.631187 -1.441000 1.165272 -7.447612 -0.625520 1.155956 -1.628373 -0.507191 0.827106 4.614312 -0.378352 14.733180 17.619898 -0.082562 27.150148 -2.012136 -4.907880 2.765837 -2.841747 15.231842 32.575021 -24.091233 -16.475419 12.649565 -41.502631 52.125460 -22.454038 -16.640122 -7.883070 -4.708888 2.676440 -2.557871 -23.974695 -13.889264 47.019666 -44.349206 -66.644466 -7.126740 -19.062465 -21.463039 9.327978 -3.877659 -2.257184 -2.151024 1.333205 3.556253 0.023104 -16.660526 -8.137510 3.471550 0.000000 0.000000 0.000000 4.014509 -6.165407 7.844468 1.681980 3.183208 0.442248 6.416744 -1.506558 -1.471799 0.000000 -0.000000 0.000000
-2480.713545 955.921134 3548.337997 -152.540477 4.548296 -1.457825 2.494590 -3.650567 -1.443080 1.160382 -7.456201 -0.626440 1.151088 -1.636952 -0.508607 0.823336 4.607879 -0.379409 14.736416 17.628310 -0.062020 27.148340 -2.000850 -4.869839 2.765421 -2.826475 15.242776 32.587721 -24.098521 -16.467166 12.681273 -41.505414 52.087912 -22.455202 -16.643284 -7.867125 -4.701076 2.693364 -2.562730 -23.958531 -13.905049 47.040127 -44.372836 -66.667964 -7.150552 -19.052166 -21.459796 9.341408 -3.931711 -2.324063 -2.124222 1.330012 3.548883 0.048404 -16.680542 -8.130212 3.459237 0.000000 0.000000 0.000000 4.136005 -6.266292 7.870355 1.637589 3.136929 0.420645 6.278997 -1.440350 -1.483433 0.000000 0.000000 0.000000
